<?xml version="1.0" standalone="no"?>
<!DOCTYPE svg PUBLIC "-//W3C//DTD SVG 20010904//EN"
 "http://www.w3.org/TR/2001/REC-SVG-20010904/DTD/svg10.dtd">
<svg version="1.0" xmlns="http://www.w3.org/2000/svg"
 width="512.000000pt" height="512.000000pt" viewBox="0 0 512.000000 512.000000"
 preserveAspectRatio="xMidYMid meet">

<g transform="translate(0.000000,512.000000) scale(0.100000,-0.100000)"
fill="#000000" stroke="none">
<path d="M1610 4785 c-98 -27 -161 -66 -241 -145 -129 -129 -190 -287 -190
-495 0 -448 357 -795 733 -711 198 44 366 227 422 460 37 154 15 366 -53 513
-61 130 -171 257 -275 318 -111 65 -283 91 -396 60z m253 -233 c60 -27 148
-110 191 -181 93 -154 109 -359 39 -514 l-27 -59 -59 5 c-160 14 -338 169
-408 356 -41 110 -59 260 -40 346 15 69 192 97 304 47z"/>
<path d="M3300 4793 c-234 -39 -439 -251 -510 -528 -27 -102 -29 -274 -5 -372
57 -235 231 -420 433 -462 257 -53 521 102 653 382 96 207 94 470 -7 676 -46
93 -162 213 -244 253 -100 49 -218 68 -320 51z m193 -233 c155 -58 259 -278
228 -484 -14 -95 -35 -157 -74 -224 l-32 -54 -65 4 c-173 10 -331 157 -385
358 -19 70 -28 211 -18 274 6 39 15 55 45 79 80 64 203 84 301 47z"/>
<path d="M691 3524 c-81 -22 -149 -62 -216 -129 -172 -172 -204 -420 -84 -664
46 -93 153 -198 249 -244 223 -109 472 -38 605 172 81 129 103 333 52 481 -38
111 -73 167 -152 246 -131 130 -296 181 -454 138z m192 -220 c56 -19 138 -90
172 -148 13 -23 32 -70 40 -105 l17 -63 -29 -30 c-15 -16 -56 -43 -90 -60 -59
-29 -68 -30 -152 -26 -78 4 -99 9 -163 40 -40 20 -90 55 -111 76 l-39 40 16
63 c19 74 44 116 93 160 77 67 156 84 246 53z"/>
<path d="M4225 3528 c-76 -14 -163 -61 -232 -122 -199 -181 -255 -473 -136
-711 117 -233 387 -323 623 -208 96 46 203 151 249 244 120 244 88 492 -84
664 -120 120 -259 164 -420 133z m201 -238 c166 -95 207 -305 94 -484 l-31
-48 -48 4 c-97 9 -220 98 -274 195 -32 61 -57 152 -57 213 0 47 11 62 72 109
31 23 91 40 143 40 37 1 63 -7 101 -29z"/>
<path d="M2400 3185 c-200 -38 -368 -125 -503 -262 -149 -151 -224 -299 -268
-527 -29 -154 -79 -223 -216 -298 -254 -139 -406 -328 -485 -605 -32 -110 -32
-351 0 -465 94 -343 358 -597 710 -685 105 -27 323 -24 432 6 97 26 207 75
275 121 81 56 133 73 215 74 83 0 127 -17 248 -93 170 -107 414 -153 618 -117
393 68 696 360 776 746 40 191 10 418 -77 592 -96 192 -219 316 -425 431 -115
63 -180 144 -200 246 -44 217 -89 337 -174 454 -51 72 -170 189 -239 236 -75
51 -206 109 -298 131 -110 27 -289 34 -389 15z m365 -235 c125 -39 202 -87
301 -185 119 -118 171 -219 208 -403 32 -156 69 -234 158 -327 47 -51 91 -84
154 -118 156 -86 242 -165 319 -292 40 -68 83 -192 87 -253 l3 -44 -70 -40
c-257 -149 -594 -229 -904 -215 -572 25 -1090 332 -1384 819 l-34 57 77 78
c97 99 132 170 166 335 38 185 90 286 208 403 115 114 221 172 377 205 74 15
255 5 334 -20z"/>
</g>
</svg>
